<svg width="50" height="50" viewBox="0 0 50 50" fill="none" xmlns="http://www.w3.org/2000/svg">
<path d="M49.86 25.7878L43.6865 16.5324C43.2251 15.8338 42.4479 15.4167 41.6081 15.4167H35.6431L36.2614 9.85886C36.3395 9.15496 36.1117 8.44734 35.6381 7.91755C35.1636 7.38738 34.4841 7.08337 33.7753 7.08337H6.29958C5.01951 7.08337 3.95095 8.0408 3.81345 9.30671L3.60515 11.1569C3.55388 11.6142 3.88269 12.0268 4.34001 12.0781C4.80144 12.1318 5.20994 11.8002 5.26208 11.3432L5.47038 9.48982C5.51599 9.06785 5.87244 8.75007 6.29968 8.75007H33.7753C34.0145 8.75007 34.235 8.84939 34.3962 9.02918C34.5565 9.20867 34.6313 9.43816 34.6045 9.67488L31.6382 36.3431C31.5926 36.7582 31.2321 37.0833 30.8171 37.0833H30.813H15.7581C15.3594 34.7223 13.306 32.9166 10.8334 32.9166C8.36072 32.9166 6.3073 34.7223 5.90867 37.0833H3.33328C3.09402 37.0833 2.87351 36.9844 2.71238 36.8046C2.55124 36.6247 2.47722 36.3952 2.5032 36.1584L3.77839 24.6752C3.82888 24.2178 3.49929 23.8056 3.04187 23.7552C2.59587 23.7047 2.17195 24.0339 2.12146 24.4913L0.846362 35.9754C0.769018 36.6798 0.996948 37.3873 1.47136 37.9167C1.94578 38.4465 2.62449 38.75 3.33337 38.75H5.90867C6.3073 41.1109 8.36072 42.9167 10.8334 42.9167C13.306 42.9167 15.3594 41.1109 15.7581 38.75H30.813H30.8171H35.0753C35.4739 41.1109 37.5273 42.9167 40 42.9167C42.4726 42.9167 44.526 41.1109 44.9247 38.75H47.5C48.8786 38.75 50 37.6286 50 36.25V26.25C50 26.0856 49.9511 25.9245 49.86 25.7878ZM10.8333 41.25C8.9949 41.25 7.49998 39.7547 7.49998 37.9167C7.49998 36.0787 8.9949 34.5834 10.8333 34.5834C12.6717 34.5834 14.1666 36.0788 14.1666 37.9167C14.1666 39.7546 12.6717 41.25 10.8333 41.25ZM40 41.25C38.1616 41.25 36.6667 39.7547 36.6667 37.9167C36.6667 36.0787 38.1616 34.5834 40 34.5834C41.8384 34.5834 43.3333 36.0788 43.3333 37.9167C43.3333 39.7546 41.8384 41.25 40 41.25ZM48.3333 36.25C48.3333 36.7094 47.9597 37.0833 47.5 37.0833H44.9247C44.526 34.7223 42.4726 32.9166 40 32.9166C37.5273 32.9166 35.4739 34.7223 35.0753 37.0833H33.161C33.2237 36.9052 33.2738 36.7208 33.2951 36.5255L35.4578 17.0833H36.6667V27.0833C36.6667 27.4979 36.9718 27.8495 37.382 27.9081L48.3334 29.4725L48.3333 36.25ZM48.3333 27.7892L38.3333 26.3606V17.0833H41.608C41.8863 17.0833 42.1443 17.2208 42.2981 17.454L48.3333 26.5022V27.7892Z" fill="black"/>
<path d="M0.833301 14.5832H15C15.4606 14.5832 15.8333 14.2101 15.8333 13.7499C15.8333 13.2897 15.4605 12.9166 15 12.9166H0.833301C0.372754 12.9166 0 13.2897 0 13.7499C0 14.2102 0.372754 14.5832 0.833301 14.5832Z" fill="black"/>
<path d="M0.833301 18.75H7.5C7.96064 18.75 8.3333 18.3768 8.3333 17.9167C8.3333 17.4565 7.96055 17.0834 7.5 17.0834H0.833301C0.372656 17.0834 0 17.4565 0 17.9167C0 18.3768 0.372754 18.75 0.833301 18.75Z" fill="black"/>
<path d="M12.5 22.9167C12.9606 22.9167 13.3333 22.5436 13.3333 22.0834C13.3333 21.6232 12.9606 21.25 12.5 21.25H0.833301C0.372754 21.25 0 21.6231 0 22.0833C0 22.5435 0.372754 22.9166 0.833301 22.9166H12.5V22.9167Z" fill="black"/>
</svg>
