<svg width="50" height="50" viewBox="0 0 50 50" fill="none" xmlns="http://www.w3.org/2000/svg">
<g clip-path="url(#clip0_39_212)">
<path d="M25 50C24.8466 50 24.6954 49.9639 24.5586 49.8946C17.7431 46.4434 12.0361 41.2637 8.0546 34.916C4.08173 28.6103 1.96941 21.3111 1.96082 13.8582V6.86015C1.96043 6.41757 2.25779 6.02997 2.68543 5.91581L24.7481 0.0329592C24.9128 -0.0109864 25.0862 -0.0109864 25.251 0.0329592L47.3136 5.91581C47.7416 6.02967 48.0395 6.41727 48.0392 6.86015V13.8582C48.0304 21.311 45.9185 28.61 41.9464 34.916C37.964 41.2637 32.2569 46.4395 25.4424 49.8946C25.3053 49.9641 25.1537 50.0002 25 50ZM3.91395 7.61015V13.8602C3.91395 28.1249 11.9794 41.1348 25 47.9258C38.0196 41.1348 46.0861 28.1249 46.0861 13.8582V7.6082L25 1.98707L3.91395 7.61015Z" fill="black"/>
<path d="M25 45.5371C24.8286 45.5371 24.6601 45.492 24.5117 45.4062C19.1484 42.3135 14.6152 37.9609 11.3896 32.8202C7.80048 27.1246 5.89167 20.5317 5.88269 13.7996V9.86795C5.88289 9.42537 6.18064 9.03836 6.60828 8.92459L24.748 4.08667C24.9128 4.04272 25.0862 4.04272 25.251 4.08667L43.3917 8.92459C43.819 9.03865 44.1162 9.42567 44.1163 9.86795V13.7996C44.1073 20.5317 42.1985 27.1246 38.6094 32.8202C35.3868 37.9609 30.8477 42.3125 25.4883 45.4062C25.3397 45.492 25.1714 45.5371 25 45.5371ZM7.83583 10.618V13.7996C7.84491 20.1645 9.6501 26.3975 13.0439 31.7821C16.0583 36.5499 20.1546 40.5398 25 43.4277C29.8711 40.5136 33.9971 36.4941 36.9551 31.7821C40.3489 26.3975 42.1541 20.1645 42.1632 13.7996V10.618L25 6.04078L7.83583 10.618Z" fill="black"/>
<path d="M30.2129 33.3309H19.7871C18.3364 33.3293 17.1608 32.1537 17.1592 30.703V23.2196C17.1608 21.7689 18.3364 20.5933 19.7871 20.5917H30.2129C31.6632 20.5938 32.8382 21.7693 32.8398 23.2196V30.703C32.8382 32.1533 31.6632 33.3288 30.2129 33.3309ZM19.7871 22.5448C19.4146 22.5454 19.1129 22.8471 19.1123 23.2196V30.703C19.1129 31.0755 19.4146 31.3773 19.7871 31.3778H30.2129C30.585 31.3767 30.8862 31.0751 30.8867 30.703V23.2196C30.8862 22.8475 30.585 22.5459 30.2129 22.5448H19.7871Z" fill="black"/>
<path d="M29.9024 22.5448H20.0967C19.5573 22.5448 19.1201 22.1076 19.1201 21.5682V18.6268C19.0782 15.3797 21.6766 12.7134 24.9237 12.6716C28.1709 12.6298 30.8371 15.2281 30.8789 18.4753C30.8796 18.5257 30.8796 18.5763 30.8789 18.6269V21.5683C30.8789 22.1076 30.4416 22.5448 29.9024 22.5448ZM21.0733 20.5917H28.9258V18.6268C28.96 16.4584 27.2299 14.6728 25.0614 14.6386C22.893 14.6045 21.1074 16.3346 21.0733 18.503C21.0726 18.5443 21.0726 18.5855 21.0733 18.6268V20.5917Z" fill="black"/>
<path d="M25 29.4081C24.4606 29.4081 24.0234 28.9709 24.0234 28.4315V25.4882C24.0234 24.9488 24.4606 24.5116 25 24.5116C25.5394 24.5116 25.9766 24.9488 25.9766 25.4882V28.4296C25.9776 28.9689 25.5413 29.407 25.002 29.4081C25.0013 29.4081 25.0006 29.4081 25 29.4081Z" fill="black"/>
</g>
<defs>
<clipPath id="clip0_39_212">
<rect width="50" height="50" fill="white"/>
</clipPath>
</defs>
</svg>
